<svg width="252.11646mm" height="240.65109mm" viewBox="0 0 252.11646 240.65109" version="1.1" id="svg1"
  xml:space="preserve" xmlns="http://www.w3.org/2000/svg" xmlns:svg="http://www.w3.org/2000/svg">

  <defs id="defs1" />

  <g id="g91" transform="translate(-704.96606,20.742289)">
    <g id="g47" style="display:inline" transform="translate(2.9934186,-8.6060788)">
      <path
        style="fill:#692305;fill-opacity:1;stroke:none;stroke-width:0;stroke-linecap:round;stroke-linejoin:round;stroke-dasharray:none;stroke-opacity:1"
        d="m 816.68202,96.321785 c 0,-0.178945 1.262,-2.199388 1.93065,-3.518716 0.66851,-1.319328 1.18372,-3.873724 1.18372,-4.647017 0,-1.165036 0.37931,-0.868372 2.59767,-2.341244 3.57617,-2.374513 8.72326,-7.319146 10.37572,-10.160802 2.21292,-3.805813 1.83878,-3.288685 -1.36257,0.629153 -5.83531,7.141113 -14.23675,13.590773 -19.95396,15.356654 -4.56583,1.410234 -7.98395,2.996981 -3.65201,-1.716616 2.24975,-2.44782 3.03786,-3.821849 1.35143,-3.295548 -2.37411,0.740949 -8.77409,0.676598 -10.34311,-0.128293 l -2.24825,-1.153335 3.6482,-2.13395 c 4.56216,-2.668596 9.62907,-6.853689 16.85548,-14.312449 5.88532,-6.074525 14.54363,-17.099364 18.0842,-22.941221 1.45267,-2.396951 3.37843,-6.638974 2.96093,-7.107476 -0.0802,-0.08983 -1.67746,0.799904 -3.9722,1.87523 -2.2946,1.075326 -5.50696,2.451557 -5.50696,2.359074 0,-0.327392 13.99321,-21.864929 14.66132,-22.565949 0.58955,-0.618607 1.31419,0.526981 1.31419,1.575969 0,5.919894 -6.61227,48.13316 -9.38322,60.444682 -1.64539,7.310041 -5.29522,10.550643 -10.3855,12.45516 -2.84923,1.065989 -8.15573,1.873503 -8.15573,1.326639 z"
        id="path15" />
      <path
        style="fill:#692305;fill-opacity:1;stroke:none;stroke-width:0;stroke-linecap:round;stroke-linejoin:round;stroke-dasharray:none;stroke-opacity:1"
        d="m 707.63334,186.42712 c -1.11531,-0.75892 -3.37703,-0.74868 -3.37703,-0.96046 0,-0.2118 3.43336,-1.44537 5.10476,-1.90612 7.65853,-2.1112 14.49534,-8.11003 18.51806,-15.9816 2.97501,-5.82148 4.28625,-10.04231 6.94441,-23.39748 3.41876,-17.17682 6.26929,-24.42117 12.84435,-31.00737 4.56423,-4.572 7.86701,-6.06247 14.39298,-6.2443 l 6.21897,-0.2256 -3.42818,2.64895 c -7.76854,6.00275 -13.76088,17.0159 -14.60644,28.52838 -0.15818,2.1538 -0.0746,8.90346 0.27969,15.05418 2.07345,17.07319 0.84628,19.77009 -0.18075,21.67522 -1.93198,3.58388 -8.00353,8.85032 -13.09531,10.78505 -2.54287,0.96621 -2.74011,0.0727 -1.93856,-2.03548 0.26954,-0.70896 0.66134,-1.19285 0.45861,-1.08902 -3.41808,1.75081 -7.03868,3.14046 -9.35458,3.78572 -3.70861,1.03326 -16.31551,2.04755 -18.78098,0.36993 z m 23.33115,-3.41804 c 2.67789,-0.23183 9.64481,-7.88486 11.67211,-11.76823 3.32701,-6.37303 4.08389,-10.33085 5.95604,-30.49442 0.42211,-4.54619 0.6879,-8.72968 0.82414,-9.5988 0.18097,-1.15478 0.6356,-1.46786 0.13305,-1.46786 -0.84857,0 -0.662,1.53915 -1.30473,10.08675 -1.30154,17.30902 -2.16863,24.27007 -5.52894,30.05452 -1.51008,2.59945 -3.64445,4.97513 -6.2562,8.03694 -2.57641,3.02037 -3.4761,3.59723 -4.44,4.42375 -0.59307,0.50854 -1.35818,0.75356 -1.05547,0.72735 z"
        id="path29" />
      <path
        style="fill:#ffffff;fill-opacity:1;stroke:none;stroke-width:0;stroke-linecap:round;stroke-linejoin:round;stroke-dasharray:none;stroke-opacity:1"
        d="m 904.63095,18.186438 c -0.24293,0.05187 -4.23526,0.370118 -11.95011,0.132537 -14.26869,-0.439309 -18.25139,-1.364885 -20.90681,-3.104726 -0.71295,-0.467194 -1.43185,-1.704503 -1.34188,-1.791197 0.0897,-0.08669 11.82867,0.04164 24.79866,0.407585 12.96999,0.36594 31.8598,1.041175 33.33069,1.06691 2.62294,0.04589 1.1828,-0.310047 -4.30161,1.067531 -6.0132,1.510354 -19.62894,2.22136 -19.62894,2.22136 z"
        id="path14" />
      <path
        style="fill:#ffe090;fill-opacity:1;stroke:none;stroke-width:0;stroke-linecap:round;stroke-linejoin:round;stroke-dasharray:none;stroke-opacity:1"
        d="m 925.15033,53.458721 c -5.23624,-0.334378 -8.59415,-1.128655 -11.31033,-2.101958 -2.25614,-0.808411 -4.99841,-2.115779 -5.20063,-2.128364 -0.20223,-0.01223 0.37985,-1.301919 1.46232,-1.724852 l 1.09879,-0.669041 -0.42049,-0.111305 c -0.80673,-0.213356 -1.97428,0.98287 -3.00592,1.851147 l -2.728,2.296083 -0.27018,-3.087751 c 0.01,-5.659677 2.89745,-18.733932 5.43778,-25.295448 0.95079,-2.455834 2.0842,-3.778124 2.66508,-3.778124 0.18687,0 4.20949,-0.904481 8.64675,-1.877349 10.84378,-2.377455 18.45589,-2.789674 22.94738,-0.562152 5.74398,2.848653 9.04835,9.273634 8.41191,17.837932 -0.5761,7.750709 -5.22469,15.617236 -10.12172,18.150892 -2.5187,1.303129 -7.81556,1.786104 -16.74132,1.216123 z"
        id="path39" />
      <path
        style="fill:#ffe090;fill-opacity:1;stroke:none;stroke-width:0;stroke-linecap:round;stroke-linejoin:round;stroke-dasharray:none;stroke-opacity:1"
        d="m 910.2361,62.959044 c -0.50434,-1.224671 -2.03163,-2.574958 -3.04683,-4.311674 -1.23278,-2.10893 -2.37445,-7.076547 -2.04733,-8.820426 0.40214,-2.143599 2.96292,-0.40461 6.25084,1.05546 6.18798,2.747869 9.58027,3.567057 20.54867,3.567057 3.81605,0 7.7169,-0.258422 7.7169,-0.146885 0,0.422974 -3.59643,4.164667 -5.07832,5.163914 -2.98106,2.010182 -7.22765,3.332568 -11.55972,3.863762 -6.84371,0.839166 -12.23434,0.96413 -12.78421,-0.371208 z"
        id="path43" />
      <path
        style="fill:#b14817;fill-opacity:1;stroke:none;stroke-width:0;stroke-linecap:round;stroke-linejoin:round;stroke-dasharray:none;stroke-opacity:1"
        d="m 850.71875,216.7441 c -0.18918,-0.0784 -1.01004,-0.0139 -1.69785,-0.12856 -2.61085,-0.43503 -3.49382,-2.73775 -4.91524,-10.58352 -0.97891,-5.40331 -2.70598,-10.07889 -7.01522,-23.2787 -1.69771,-5.20015 -3.76006,-13.00655 -4.92475,-17.16666 -2.73126,-9.75567 -2.64564,-10.34364 -3.40399,-11.27909 -1.57907,-1.94764 -0.53913,0.53336 1.7325,7.75408 1.71253,5.44326 1.14268,6.20473 -2.13477,6.20473 -2.67446,0 -10.10283,-0.91284 -15.67679,-1.8384 -6.55737,-1.08882 -19.51839,-4.46748 -19.51839,-5.12853 0,-0.13951 0.96288,-2.08015 1.99426,-3.88524 3.16601,-5.54177 4.05686,-10.40407 4.02275,-16.88102 -0.0245,-4.70592 -0.18007,-8.31569 -1.20628,-8.50921 -0.57678,-0.10873 -0.22547,-0.21301 -0.0435,1.61069 0.60599,6.07251 0.80401,11.17338 0.23008,14.0085 -1.1314,5.59289 -4.25637,11.32145 -8.08845,14.93966 -1.11577,1.0535 -4.0971,3.24011 -6.46074,4.81972 -7.06116,4.71879 -9.64184,7.67406 -11.39051,13.71457 -0.71948,2.48496 -1.02472,3.29057 -0.98327,9.53037 0.0353,5.39586 0.57827,8.01325 1.24909,12.46482 0.47023,3.1201 0.81896,5.96329 0.7752,6.01606 -0.0435,0.0527 -1.28755,0.52333 -2.87355,0.82594 -2.27503,0.43407 -4.57045,0.6618 -9.02593,0.49092 -6.36696,-0.24422 -7.60658,-0.75673 -8.12625,-2.82814 -0.17806,-0.70961 -0.13536,-10.86528 -0.3445,-22.21106 -0.2092,-11.34578 -0.61976,-23.77526 -0.91232,-27.84083 -1.07511,-14.93939 -0.82391,-23.51015 1.29409,-30.04947 3.34227,-10.31921 11.62914,-19.37857 21.41695,-23.15992 7.61279,-2.94104 11.3545,-3.31041 30.46408,-3.67889 14.41642,-0.27799 20.79262,-0.64901 24.29949,-1.302856 0.72994,-0.136094 1.54618,-0.625878 1.42427,-0.27087 -0.95826,2.790166 -3.24117,9.966786 -3.0717,10.157676 0.26447,0.29793 0.5746,-0.0461 1.11142,-1.08415 0.68931,-1.33313 3.65854,-11.934616 5.02192,-17.472048 2.70422,-10.98366 7.20916,-35.335617 8.89519,-48.275111 3.01706,-23.15463 3.09045,-21.280529 1.93785,-22.650332 -0.52228,-0.620632 -2.15788,-1.594819 -3.79294,-2.694159 -3.31225,-2.227199 -5.82675,-4.92541 -8.20085,-8.4965202 -2.97603,-4.4766588 -7.04594,-13.5512204 -7.4773,-16.6985079 -0.39765,-2.9013079 2.12391,-3.3051849 5.51919,-0.5935726 5.43793,4.3428479 11.23423,10.3467406 16.06276,15.1512975 4.85231,4.8282422 8.79122,8.7780722 11.69616,7.6657462 1.4891,-0.57019 5.29863,-0.641491 7.3804,-0.68937 l 3.89433,-0.08956 0.73252,1.319918 c 1.08003,1.945801 2.71671,2.307347 9.47983,3.109833 8.79964,1.044122 13.8035,0.903783 19.82622,0.909899 2.94966,0.0027 6.69416,-0.229169 8.11445,-0.322021 l 4.6929,-0.311612 0.58719,0.529848 -2.3683,2.498752 -1.77268,3.938916 c -0.32872,0.730409 -5.99621,24.263511 -4.43427,28.873725 0.33256,0.981811 1.40389,3.092942 2.35331,4.663937 1.9861,3.286633 3.41119,5.524169 3.25273,5.670755 -0.23118,0.21413 -7.47649,2.488563 -9.21252,2.844496 -3.07048,0.629548 -7.01563,0.487052 -10.57754,-0.44798 -3.84377,-1.00906 -7.10682,-1.695809 -7.10682,-1.169005 0,0.197156 0.57106,0.246421 1.6178,0.837182 1.1386,0.64254 2.28373,1.514404 2.48201,2.036071 0.56305,1.480891 0.36395,4.972671 -0.5443,8.922623 -1.92032,8.351975 -1.73522,13.559447 0.86123,24.64204 3.46759,14.80109 4.76479,21.90812 10.07428,52.08406 3.253,18.48817 4.18747,23.16741 8.52295,42.29605 1.2215,5.38924 2.38756,10.23812 2.51136,10.83399 l 0.27439,1.32139 -3.54953,1.38883 c -6.11038,2.39078 -13.79588,3.48034 -15.05408,2.22219 -0.92768,-0.92765 -6.63103,-24.92478 -8.88377,-37.30545 -0.67041,-3.68404 -1.46097,-8.3378 -1.9316,-10.4582 -1.00175,-4.51326 -1.35252,-7.74407 -0.54307,-9.31548 0.31162,-0.60516 1.84951,-2.49905 3.06803,-3.91727 3.27637,-3.81362 5.24929,-7.63165 6.85635,-14.26844 0.64514,-2.66434 0.78566,-3.23635 0.45732,-3.44469 -0.23362,-0.14819 -0.40473,-0.26897 -0.59377,-0.21013 -0.18918,0.0588 -0.48055,2.31361 -1.28864,5.10774 -2.16671,7.49133 -4.48007,11.18331 -8.81826,15.57144 -4.75433,4.80901 -10.20788,8.54584 -16.97426,9.06888 l -1.60299,0.12395 0.18863,-2.96312 c 0.1128,-1.55979 0.29872,-4.90428 0.42797,-7.33434 l 0.22329,-4.19644 -0.42511,0.30959 c -0.36653,0.26689 -0.49741,0.62146 -0.58616,1.04147 -0.34166,1.61786 -1.1564,29.30844 -0.95486,33.91279 0.24123,5.50976 1.17394,9.13014 3.66506,17.12645 1.57662,5.06068 3.09589,10.74429 3.38102,13.22883 l 0.17586,1.53256 -2.88511,0.57167 c -2.64931,0.52495 -12.04489,0.71746 -12.64178,0.4699 z M 879.49164,34.783022 c 0.18402,-3.255402 -0.32317,-7.185132 -2.40998,-9.271882 -1.88689,-1.886999 -3.61695,-2.421957 -6.29249,-2.147907 -3.3681,0.344992 -6.01239,2.454588 -6.7937,5.3429 -0.76514,2.828133 0.23892,6.53937 2.12323,8.653369 6.12424,6.870908 13.17398,-2.216036 13.37294,-2.57648 z m -16.72719,-10.675606 2.13886,-2.079045 4.45534,-1.126385 c 3.12769,-0.790757 3.8136,-0.908966 3.73355,-1.316868 -0.0843,-0.427405 -0.44277,-0.493902 -2.94395,-0.493902 -3.90629,0 -7.26583,2.073948 -8.237,3.189447 -1.39791,1.605882 -1.05665,1.819591 -1.05665,3.157769 0,0.454951 -0.38366,1.152573 -0.24572,1.152573 0.1389,0 0.87862,-1.242515 2.15557,-2.483589 z"
        id="path13" />
      <path
        style="fill:#ffffff;fill-opacity:1;stroke:none;stroke-width:0.199999;stroke-linecap:round;stroke-linejoin:round;stroke-dasharray:none"
        d="m 764.22664,210.56118 -9.74093,-0.66479 -1.52744,-2.57679 c -0.43716,-0.7375 -0.32908,-3.16196 -0.30325,-4.90946 0.0652,-4.30624 0.52972,-10.01547 -0.0593,-12.64816 -0.39582,-1.76977 -0.56244,-2.61758 0.37349,-3.09987 1.56874,-0.80852 20.80002,-1.00011 18.52974,-0.80677 l -0.22302,2.35761 0.54212,9.48693 c 0.28934,5.06388 1.628,10.56243 1.63017,11.27431 0,1.4081 -9.22162,1.58699 -9.22162,1.58699 z"
        id="path61-9" />
      <path
        style="fill:#692305;fill-opacity:1;stroke:none;stroke-width:0;stroke-linecap:round;stroke-linejoin:round;stroke-dasharray:none;stroke-opacity:1"
        d="m 798.63805,219.29191 c -2.63368,-0.79564 -4.66898,-2.37082 -5.85528,-4.75142 -0.66172,-1.32793 -1.00134,-2.76501 -1.08397,-3.31573 l -0.27018,-1.79915 8.48109,0.90281 c 4.34552,0.46259 8.62894,0.77533 8.8044,0.78944 0.43652,0.0351 1.81282,5.00649 1.81282,6.28078 0,1.84503 -1.36815,2.45943 -6.0166,2.41529 -2.42018,-0.023 -5.1615,-0.30734 -5.87228,-0.52202 z"
        id="path35" />
      <path
        style="fill:#b14817;fill-opacity:1;stroke:none;stroke-width:0;stroke-linecap:round;stroke-linejoin:round;stroke-dasharray:none;stroke-opacity:1"
        d="m 800.33808,210.24834 c -6.04025,-0.865 -8.63126,-1.24781 -9.44655,-2.14886 -0.83771,-0.92587 -0.82956,-2.5479 -0.82956,-22.32355 0,-11.80912 0.13319,-18.55997 0.67313,-21.38489 0.61225,-3.20577 2.54209,-1.86121 5.82077,-0.80418 2.21387,0.71377 6.16732,1.85921 8.70777,2.42885 2.54059,0.56962 5.51444,1.23366 5.70552,1.40764 0.19094,0.17397 -0.72926,2.46883 -1.39437,4.60441 -3.83548,12.31583 -4.16152,26.17346 -2.00894,33.67755 1.64512,5.73509 1.39614,4.73479 -2.21075,4.6562 -1.67134,-0.0364 -4.34851,-0.0174 -5.01702,-0.11321 z"
        id="path38" />
      <path
        style="fill:#ffffff;fill-opacity:1;stroke:none;stroke-width:0.199999;stroke-linecap:round;stroke-linejoin:round;stroke-dasharray:none"
        d="m 799.43961,209.60179 -7.93706,-0.74891 -1.41965,-3.6617 c -0.34166,-0.88151 -0.41247,-3.80861 -0.39004,-5.86079 0.0571,-5.05704 0.45922,-11.76168 -0.0516,-14.85339 -0.34329,-2.07832 -0.48776,-3.07395 0.32373,-3.64035 1.36012,-0.94946 18.07182,-2.6481 17.86348,-0.67773 l -0.28322,2.67877 -1.23795,10.96119 c -0.66797,5.91449 2.11072,15.42337 2.11262,16.25936 0,1.65361 -8.98026,-0.45645 -8.98026,-0.45645 z"
        id="path61-9-7" />
      <path
        style="fill:#692305;fill-opacity:1;stroke:none;stroke-width:0;stroke-linecap:round;stroke-linejoin:round;stroke-dasharray:none;stroke-opacity:1"
        d="m 755.85333,222.09034 c -0.34221,-0.55372 -2.19299,-11.4706 -1.97882,-11.67904 0.0951,-0.0931 8.45314,0.65177 10.16444,0.49546 l 9.69811,-0.88589 1.26255,5.14416 c 0.60586,2.4683 1.35509,6.10097 1.49562,6.63865 0.24993,0.9553 -0.58412,0.57305 -10.11492,0.57305 -5.36386,0 -10.39149,-0.0671 -10.52698,-0.28639 z"
        id="path30" />
      <path
        style="fill:#692305;fill-opacity:1;stroke:none;stroke-width:0;stroke-linecap:round;stroke-linejoin:round;stroke-dasharray:none;stroke-opacity:1"
        d="m 850.8802,226.55355 c -1.85359,-0.42284 -1.34762,-0.53248 -2.57864,-4.52654 -0.6802,-2.20674 -1.74093,-4.90652 -1.61902,-5.02842 0.12231,-0.1219 5.59299,0.008 10.56557,-0.17683 8.6174,-0.32086 9.59414,-0.67475 9.85752,0.2058 0.15194,0.50809 0.77928,3.0746 1.1999,4.92646 0.93108,4.0992 2.08599,4.5968 -2.96542,4.60696 -2.03326,0.004 -7.08481,0.22552 -8.66171,0.3366 -1.57689,0.11117 -2.96243,0.30278 -3.9866,0.0692 z"
        id="path36" />
      <path
        style="fill:#692305;fill-opacity:1;stroke:none;stroke-width:0;stroke-linecap:round;stroke-linejoin:round;stroke-dasharray:none;stroke-opacity:1"
        d="m 893.94299,223.69252 c -1.20031,-0.84073 -2.21877,-3.36838 -3.04221,-7.03564 l -0.73524,-3.27386 4.28627,-0.85713 c 1.61957,-0.32389 5.39471,-1.09733 8.54007,-1.80368 3.51638,-0.7897 6.89753,-1.66874 7.15153,-1.38813 0.33542,0.37056 3.20693,13.76842 3.20693,14.66425 0,0.14072 -4.61638,0.39323 -9.37044,0.39323 -6.90446,0 -9.20355,-0.11524 -10.03691,-0.69904 z"
        id="path37" />
      <path
        style="opacity:1;fill:#b14817;fill-opacity:1;stroke:#000000;stroke-width:0.934753;stroke-linecap:round;stroke-linejoin:round;stroke-dasharray:none;stroke-opacity:1"
        d="m 849.46329,4.2180223 c -0.50813,-0.5482965 -1.0629,-1.0521312 -1.56558,-1.6054219 -1.39464,-1.5350423 -2.35149,-3.40645379 -3.47556,-5.149394 -1.32777,-2.0587883 -2.92535,-4.0013599 -3.67983,-6.3320978 -0.19344,-0.5975792 -0.3281,-1.2449866 -0.15903,-1.8499116 0.0845,-0.302463 0.24703,-0.586916 0.4847,-0.792205 0.23767,-0.205289 0.55301,-0.326353 0.86632,-0.304778 0.18759,0.01292 0.36929,0.07523 0.53657,0.161114 0.16728,0.08588 0.32138,0.195093 0.47236,0.307184 0.39584,0.293881 0.77459,0.610231 1.17041,0.904132 0.76468,0.5677799 1.58964,1.0493022 2.36879,1.5970569 3.91811,2.7545071 6.52559,7.0640918 10.42022,9.8517051 0.51592,0.369274 1.05627,0.7134147 1.5007,1.1662053 0.22221,0.2263953 0.41928,0.4796566 0.56475,0.7615638 0.14547,0.2819071 0.23843,0.5933641 0.24945,0.9104015 0.0123,0.3533006 -0.0773,0.7052916 -0.22399,1.026929 -0.1467,0.3216374 -0.34929,0.6149546 -0.56976,0.8913001 -0.82189,1.030207 -1.89091,1.832566 -2.97656,2.5796875 -0.92726,0.6381181 -1.87607,1.2449159 -2.84427,1.8190108 -0.50499,-2.2090227 -1.59942,-4.2804443 -3.13969,-5.9424817 z"
        id="path89" transform="matrix(1.0889648,0.30282104,-0.37481919,0.94674975,-70.436774,-255.04971)" />
      <path
        style="opacity:0.342428;fill:#1a1a1a;fill-opacity:1;stroke:none;stroke-width:1;stroke-linecap:round;stroke-linejoin:round;stroke-dasharray:none;stroke-opacity:1"
        d="m 850.81309,-9.8032679 c 0.22332,0.8116145 0.55756,1.5926306 0.99051,2.3145337 0.60051,1.0012952 1.38404,1.88063 2.02231,2.8582898 0.64347,0.9856306 1.13732,2.0720834 1.42326,3.2139072 0.0683,0.2729385 0.12704,0.55438314 0.27244,0.79527236 0.18866,0.31257253 0.52213,0.53354323 0.88351,0.58545869 0.36139,0.05191547 0.74357,-0.06624723 1.0126,-0.31307038 0.26902,-0.24682315 0.41958,-0.61744338 0.3989,-0.98195297 -0.0207,-0.3645096 -0.21218,-0.7157263 -0.50739,-0.9305436 l -2.4293,-3.6169852 -3.86452,-4.6234407 -0.20233,0.6985311 z"
        id="path90" transform="translate(0.09354433,-0.04677217)" />
      <path
        style="fill:#692305;fill-opacity:1;stroke:none;stroke-width:0;stroke-linecap:round;stroke-linejoin:round;stroke-dasharray:none;stroke-opacity:1"
        d="m 854.26774,13.301527 c -1.55515,-0.293505 -3.82107,-2.987636 -3.82107,-4.6131123 0,-0.7461329 0.58778,-3.0878512 1.21036,-4.2297091 1.15532,-2.1197288 12.78353,-15.9000426 13.10222,-15.5893896 0.0965,0.09417 -0.38868,3.3989425 -0.71798,5.5954651 -0.32929,2.1965186 -0.69555,3.465815 -0.54226,3.6154316 0.60777,0.5924052 3.48499,-0.8573703 8.12869,-3.887022 3.92083,-2.5577525 6.55981,-3.8659854 6.69898,-3.1985721 0.24055,1.1542524 -2.04074,5.9781008 -4.33072,9.79875415 -1.0629,1.77347145 -1.77776,2.97905875 -1.63642,3.20219535 0.14148,0.2231338 0.94617,-0.4276869 2.38417,-1.165281 1.43772,-0.7375913 2.92506,-1.7043833 3.12266,-1.7926257 0.0843,-0.0379308 0.5867,-0.2472432 0.72478,0.020739 0.18251,0.3550069 -0.0245,1.2817154 -0.26135,1.9459594 -0.0544,2.8397042 -4.52125,7.9104822 -6.38599,8.8507522 -2.07851,1.048011 -14.42565,2.059843 -17.67607,1.446417 z"
        id="path22" />
      <path
        style="fill:#ffffff;fill-opacity:1;stroke:none;stroke-width:0.949685;stroke-linecap:round;stroke-linejoin:round;stroke-dasharray:none"
        d="m -5852.7135,-1008.3739 c 4.0278,-0.9714 8.172,-1.4589 12.3153,-1.4489 4.109,0.01 8.2065,0.5068 12.3155,0.483 4.2736,-0.025 8.5261,-0.6124 12.7983,-0.7245 5.797,-0.1521 11.6157,0.5716 17.3865,0 5.5903,-0.5537 11.0452,-2.3158 16.662,-2.4148 1.6098,-0.028 3.2214,0.081 4.8295,0 2.4179,-0.1212 4.8134,-0.6751 7.0391,-1.6275 l 1.1181,3.9481 c 0.6834,3.2545 1.3234,6.5181 1.9198,9.7896 0.5027,2.75789 0.9745,5.52144 1.4151,8.28994 l 3.0256,9.51424 2.6902,12.53991 -92.5974,22.10494 -6.7711,-30.23311 -1.9028,-7.19604 -1.2627,-7.51605 -4.2793,-11.87703 13.2982,-3.6319 z"
        id="path12-3" transform="matrix(0.21059556,0,0,0.21059556,2122.2413,412.69728)" />
      <path
        style="fill:#ffffff;fill-opacity:1;stroke:none;stroke-width:0;stroke-linecap:round;stroke-linejoin:round;stroke-dasharray:none;stroke-opacity:1"
        d="m 870.70586,39.105976 c -1.22843,-0.222271 -2.3813,-0.881921 -3.37123,-1.929006 -1.98148,-2.095517 -2.85955,-5.445018 -2.11249,-8.058328 0.48993,-1.714469 1.51764,-2.946085 3.07075,-3.680224 1.04714,-0.494935 2.07607,-0.701985 3.48661,-0.701658 1.02132,2.44e-4 1.4747,0.05708 2.19744,0.275382 1.42998,0.431997 2.8586,1.497321 3.68979,2.751646 0.31475,0.474835 0.74692,1.328801 0.69759,1.37812 -0.019,0.01875 -0.38665,-0.176117 -0.81746,-0.433085 -0.93013,-0.554637 -1.50147,-0.823482 -2.20749,-1.038754 -0.45718,-0.139383 -0.62516,-0.158654 -1.37181,-0.15735 -0.7434,0.0014 -0.91844,0.02188 -1.38554,0.1628 -1.37019,0.413433 -2.48718,1.291046 -3.16548,2.487191 -1.1371,2.004855 -0.86326,4.297404 0.71486,5.98442 1.06807,1.14177 2.51408,1.709712 4.65213,1.827337 l 0.75535,0.04159 -0.60341,0.313476 c -1.46002,0.758684 -2.88361,1.020027 -4.22961,0.776487 z"
        id="path44" />
      <path
        style="opacity:0.161277;fill:#1a1a1a;fill-opacity:1;stroke:none;stroke-width:1;stroke-linecap:round;stroke-linejoin:round;stroke-dasharray:none;stroke-opacity:1"
        d="m 871.25796,14.123622 32.44188,0.851178 18.16445,0.196575 1.68233,-0.361137 c -0.13163,0.02909 -0.26502,0.0502 -0.3992,0.06316 -0.32127,0.03104 -0.645,0.01533 -0.9674,0 -8.53489,-0.405926 -17.08027,-0.530786 -25.62323,-0.694531 -8.53082,-0.163513 -17.0609,-0.365853 -25.58988,-0.607013 z"
        id="path91" transform="translate(-0.04677217,-0.04677217)" />
    </g>
    <path
      style="fill:none;stroke:#000000;stroke-width:2.24271;stroke-linecap:round;stroke-linejoin:round;stroke-dasharray:none;stroke-opacity:1"
      d="m -5402.9261,-7129.5249 c 0.3335,2.3768 0.8127,4.7331 1.4341,7.0513 0.9017,3.3643 2.1031,6.6481 3.5854,9.8 10.7395,25.5395 33.0961,45.9208 59.5173,54.2587 4.3222,1.364 8.7555,2.4233 13.2659,2.8683 2.7787,0.2741 5.5805,0.3142 8.3659,0.1196"
      id="path21-5" transform="matrix(0.25900766,0.0150994,-0.01423681,0.24421127,2149.7681,1863.8336)" />
    <path style="display:inline;opacity:0.338058;fill:#333333;stroke-width:0;stroke-linecap:round;stroke-linejoin:round"
      d="m 882.27171,60.306397 c -1.89534,0.212545 -3.79941,0.347186 -5.7058,0.40347 1.67067,10.108419 4.84089,19.967702 9.37483,29.155448 0.55568,1.126058 1.13164,2.241971 1.70532,3.358968 0.43406,0.845155 0.87769,1.70608 1.5503,2.377117 0.45802,0.456949 1.01623,0.819258 1.39526,1.343586 0.14485,0.200381 0.26416,0.424981 0.4539,0.583511 0.0949,0.07927 0.20738,0.140344 0.32922,0.161311 0.12183,0.02097 0.25333,-9.34e-4 0.35376,-0.07303 0.0679,-0.04875 0.11947,-0.118499 0.15206,-0.195477 0.0326,-0.07698 0.0468,-0.161001 0.0477,-0.24459 0.002,-0.16718 -0.048,-0.330081 -0.0964,-0.490107 -2.8861,-9.539462 -2.46882,-19.748313 -1.44694,-29.662274 0.20492,-1.988041 0.43305,-3.973689 0.68434,-5.956403 l -1.12174,-2.060156 c -2.53174,0.575507 -5.09569,1.009285 -7.67584,1.298625 z"
      id="path86" />
    <path style="display:inline;opacity:0.338058;fill:#ececec;stroke-width:0;stroke-linecap:round;stroke-linejoin:round"
      d="m 888.79106,84.426238 c 1.22168,5.322116 2.39828,10.654579 3.52965,15.996622 0.30386,1.43477 0.60447,2.87025 0.91797,4.30294 0.44737,2.04444 0.92107,4.08354 1.31545,6.13885 0.217,1.13091 0.40991,2.2663 0.62119,3.39829 0.37605,2.01477 0.81023,4.01821 1.20587,6.02923 0.58346,2.96569 1.08311,5.94787 1.49815,8.94178 l 0.68329,3.45821 c 0.25581,1.39495 0.50988,2.79021 0.76223,4.18579 0.22966,1.27012 0.45789,2.5405 0.68469,3.81113 l 0.60722,3.9145 0.60719,2.93263 c 0.35962,2.51762 0.76451,5.02877 1.21439,7.53184 0.36993,2.05823 0.77027,4.11087 1.17565,6.16242 0.37884,1.91721 0.76211,3.83356 1.1498,5.749 0.28216,1.5412 0.59303,3.07715 0.93239,4.60677 0.88056,3.96904 1.95254,7.89394 2.81651,11.86662 0.23936,1.10062 0.4627,2.20465 0.69427,3.30694 0.5085,2.42047 1.05672,4.83259 1.64436,7.23507 0.3786,1.93533 0.78059,3.86609 1.20584,5.79171 1.15646,5.23663 2.48506,10.43525 3.98293,15.58463 -0.67915,-0.26292 -1.45409,-0.26952 -2.13762,-0.0182 -0.25367,0.0933 -0.49928,0.22168 -0.76771,0.25322 -0.13421,0.0158 -0.27327,0.006 -0.39887,-0.0438 -0.12559,-0.0499 -0.23676,-0.14227 -0.29506,-0.26418 -0.0412,-0.0862 -0.0549,-0.18531 -0.0387,-0.27948 0.0162,-0.0942 0.0624,-0.18295 0.13011,-0.25036 -0.0533,-0.6219 -0.11425,-1.24315 -0.18272,-1.86357 -0.15987,-1.44869 -0.36095,-2.89282 -0.60291,-4.33008 -0.53448,-2.24552 -1.07041,-4.49069 -1.60779,-6.73551 -3.68324,-15.38608 -7.43614,-30.76242 -10.4522,-46.29307 -2.17252,-11.187 -3.96082,-22.44442 -5.78777,-33.69303 -1.79657,-11.06155 -3.63093,-22.11697 -5.50304,-33.16599 z"
      id="path8" />
    <path style="display:inline;opacity:0.338058;fill:#333333;stroke-width:0;stroke-linecap:round;stroke-linejoin:round"
      d="m 851.55491,41.135755 c 0.17769,0.0556 0.32811,0.183237 0.42984,0.339177 0.10173,0.155941 0.15723,0.338787 0.18081,0.523476 0.0472,0.369378 -0.0289,0.74192 -0.0511,1.113637 -0.0533,0.893735 0.21771,1.803339 0.75146,2.522165 0.40499,1.276814 0.96285,2.505061 1.65789,3.650134 0.71714,1.181483 1.57762,2.271265 2.50304,3.297804 1.06006,1.175894 2.20922,2.273606 3.45625,3.248991 3.7419,2.926791 8.36834,4.707092 13.10697,5.043697 -0.77567,0.373681 -1.59275,0.661342 -2.43144,0.856019 -2.52998,0.587257 -5.21601,0.310584 -7.67122,-0.536551 -3.09211,-1.066888 -5.86054,-3.035151 -7.92094,-5.575642 -2.06041,-2.540492 -3.41146,-5.642649 -3.91521,-8.874615 -0.14495,-0.929972 -0.2252,-1.885083 -0.58833,-2.753412 -0.11919,-0.285004 -0.26754,-0.55697 -0.39049,-0.840371 -0.12295,-0.283401 -0.22119,-0.58283 -0.23212,-0.891558 -0.0109,-0.308729 0.0731,-0.629557 0.27815,-0.860634 0.10251,-0.115538 0.23389,-0.20647 0.38055,-0.254956 0.14665,-0.04849 0.30846,-0.05349 0.45587,-0.0074 z"
      id="path49" />
    <path style="display:inline;opacity:0.338058;fill:#333333;stroke-width:0;stroke-linecap:round;stroke-linejoin:round"
      d="m 795.66203,153.89241 -0.57174,0.16341 0.54589,-0.16341 c 0.18537,0.0422 0.37055,0.0853 0.55552,0.1292 0.5839,0.1387 1.16693,0.28643 1.73117,0.49092 0.61519,0.22296 1.20407,0.51195 1.80866,0.76223 0.74947,0.31026 1.52354,0.56107 2.31254,0.74931 l 3.53983,0.91725 c 1.19488,0.33552 2.40168,0.62859 3.61736,0.8785 1.26579,0.26021 2.54159,0.47371 3.7982,0.77515 0.28781,0.069 0.58085,0.14543 0.82682,0.31006 0.24646,0.16497 0.43297,0.41374 0.53653,0.69165 0.10356,0.27791 0.1258,0.58354 0.0787,0.87635 -0.0942,0.58564 -0.45798,1.10192 -0.91038,1.48555 -0.90479,0.76726 -2.12606,1.0462 -3.1155,1.70068 -1.28559,0.85037 -2.07296,2.25187 -2.91973,3.53984 -1.7321,2.63459 -3.89722,4.98379 -6.38204,6.92464 -1.84748,2.67177 -3.46592,5.50187 -4.83174,8.44909 -1.27547,2.75226 -2.33069,5.60655 -3.15224,8.52662 -0.0998,-0.0175 -0.19648,-0.0527 -0.28425,-0.10336 -0.21376,-0.12337 -0.36803,-0.33653 -0.44559,-0.57084 -0.0775,-0.2343 -0.0825,-0.48842 -0.0428,-0.73201 0.0795,-0.48717 0.32875,-0.92689 0.51426,-1.38432 0.47326,-1.16694 0.53246,-2.46279 0.43499,-3.71827 -0.0975,-1.25548 -0.34452,-2.49511 -0.46089,-3.74898 -0.25528,-2.7505 0.12113,-5.51426 0.33592,-8.26822 0.26678,-3.42056 0.28407,-6.86055 0.0517,-10.28362 l 0.0775,-4.08243 c -0.24712,-0.58756 -0.30971,-1.25118 -0.17678,-1.87458 0.13293,-0.6234 0.46077,-1.20378 0.92608,-1.63942 0.44194,-0.41377 1.00579,-0.6957 1.60197,-0.80099 z"
      id="path50" />
    <path style="display:inline;opacity:0.338058;fill:#333333;stroke-width:0;stroke-linecap:round;stroke-linejoin:round"
      d="m 831.26709,144.84904 c 0.3985,-0.49441 1.03132,-0.79108 1.66626,-0.78115 0.63494,0.01 1.25817,0.32622 1.64103,0.83285 0.41091,0.54375 0.53137,1.24511 0.6718,1.91203 0.29798,1.41516 0.73807,2.79567 1.13686,4.18579 1.2009,4.18613 2.0322,8.47799 3.41067,12.60905 0.68671,2.05796 1.50677,4.06841 2.27375,6.09782 1.76431,4.66828 3.24787,9.43718 4.70254,14.21102 0.78777,2.58524 1.56743,5.17301 2.37712,7.75147 0.63031,2.00723 1.27916,4.01 1.8087,6.04614 0.26815,1.03105 0.5055,2.06992 0.77512,3.10058 0.38628,1.47664 0.83844,2.9351 1.29193,4.3925 0.2236,0.7186 0.44777,1.43782 0.62011,2.17041 0.39488,1.67861 0.51351,3.40829 0.78095,5.11185 0.26743,1.70357 0.7004,3.42086 1.64784,4.8617 0.16155,0.24569 0.33803,0.48334 0.46594,0.74811 0.12791,0.26477 0.20555,0.56434 0.15417,0.85386 -0.0323,0.18188 -0.11513,0.35378 -0.23287,0.49612 -0.11774,0.14234 -0.26977,0.25526 -0.43769,0.33224 -0.33584,0.15396 -0.72814,0.16076 -1.08389,0.0611 -0.35575,-0.0996 -0.67729,-0.29993 -0.95657,-0.54178 -0.27928,-0.24185 -0.51931,-0.52524 -0.75129,-0.81278 -0.39653,-0.4915 -0.77436,-1.00059 -1.08522,-1.55029 -0.85983,-1.52044 -1.17238,-3.28254 -1.41173,-5.01279 -0.23936,-1.73025 -0.42508,-3.49198 -1.06874,-5.11579 -0.30684,-0.77409 -0.71359,-1.50498 -1.03351,-2.27376 -0.82499,-1.98249 -1.0498,-4.15298 -1.49863,-6.25285 -0.3598,-1.68337 -0.86692,-3.33219 -1.24023,-5.01262 -0.52339,-2.35605 -0.78395,-4.77442 -1.4986,-7.07967 -0.53628,-1.7299 -1.32079,-3.37113 -1.96371,-5.06429 -0.88002,-2.31758 -1.4927,-4.7269 -2.27378,-7.07967 -0.97876,-2.94824 -2.22416,-5.81513 -2.94555,-8.83667 -0.42716,-1.78918 -0.66877,-3.62589 -1.24024,-5.37434 -0.50405,-1.54217 -1.25648,-2.98997 -1.86034,-4.49586 -0.47659,-1.1885 -0.86009,-2.41186 -1.2919,-3.61735 -0.42272,-1.18013 -0.89311,-2.34743 -1.18857,-3.56567 -0.26212,-1.08075 -0.38403,-2.19543 -0.36173,-3.30729 z"
      id="path51" />
    <path style="display:inline;opacity:0.338058;fill:#333333;stroke-width:0;stroke-linecap:round;stroke-linejoin:round"
      d="m 882.86118,146.0534 c 0.10735,-0.2463 0.1535,-0.51508 0.25097,-0.76546 0.0487,-0.12519 0.11081,-0.24633 0.19587,-0.35031 0.0851,-0.10398 0.19423,-0.19045 0.32053,-0.23624 0.1416,-0.0513 0.30058,-0.0491 0.44343,-0.001 0.14285,0.0478 0.26943,0.13966 0.3655,0.25567 0.19213,0.23201 0.25703,0.5497 0.23299,0.84997 -0.024,0.30028 -0.12899,0.58785 -0.24519,0.86577 -0.1162,0.27792 -0.24522,0.55223 -0.3217,0.84359 -0.13721,0.5227 -0.0987,1.07708 0.006,1.60731 0.10436,0.53024 0.27284,1.04563 0.39634,1.57174 0.47795,2.03608 0.27056,4.16378 0.43847,6.24846 0.26939,3.34458 1.49805,6.52647 2.26554,9.79293 1.07682,4.58294 1.24619,9.34278 2.3386,13.92203 0.68153,2.85689 1.716,5.61642 2.52132,8.44091 0.9858,3.45748 1.6259,7.00429 2.15591,10.56028 0.33091,2.22018 0.62062,4.45226 1.17356,6.6278 0.55295,2.17553 1.38114,4.30834 2.69975,6.12492 0.35847,0.49384 0.75956,0.97721 0.93971,1.56024 0.0901,0.29152 0.12097,0.60548 0.0555,0.9035 -0.0655,0.29801 -0.23257,0.5785 -0.48366,0.75185 -0.25065,0.17304 -0.57235,0.23001 -0.87298,0.18112 -0.30064,-0.0489 -0.57997,-0.19833 -0.80789,-0.40037 -0.36854,-0.32668 -0.60001,-0.77604 -0.84045,-1.20584 -0.55941,-0.99996 -1.21374,-1.95696 -1.60779,-3.03288 -0.35567,-0.97113 -0.48738,-2.00737 -0.62119,-3.03289 -0.21284,-1.63119 -0.43789,-3.26492 -0.84045,-4.85992 -0.30956,-1.22652 -0.7229,-2.42523 -1.02314,-3.65407 -0.56724,-2.32163 -0.72535,-4.72744 -1.27892,-7.05237 -0.57837,-2.42909 -1.57977,-4.7352 -2.30206,-7.12545 -1.12278,-3.71559 -1.56125,-7.59783 -2.33862,-11.40071 -0.49295,-2.41149 -1.12271,-4.79294 -1.79049,-7.16199 -0.8994,-3.19077 -1.87578,-6.40616 -1.97321,-9.71984 -0.0431,-1.46684 0.0851,-2.95756 -0.25577,-4.38489 -0.14061,-0.58875 -0.35896,-1.15576 -0.58465,-1.71742 -0.19108,-0.47553 -0.38918,-0.95298 -0.48254,-1.45689 -0.0934,-0.50391 -0.0747,-1.04411 0.15366,-1.50291 0.19979,-0.40138 0.54188,-0.71014 0.8724,-1.0131 0.33051,-0.30296 0.66587,-0.62217 0.84501,-1.03318 z"
      id="path53" />
    <path style="display:inline;opacity:0.338058;fill:#333333;stroke-width:0;stroke-linecap:round;stroke-linejoin:round"
      d="m 946.80689,9.2516615 c 1.41785,1.1704245 2.71297,2.4894435 3.85727,3.9284625 0.85397,1.073917 1.62406,2.214524 2.30093,3.408011 0.95224,2.886908 1.34062,5.958633 1.13687,8.991699 -0.10914,1.624737 -0.38671,3.238111 -0.82682,4.805908 -0.85448,3.698643 -2.95973,7.096597 -5.89111,9.508463 -3.96793,3.264711 -9.43195,4.630717 -14.4694,3.617351 l -13.17749,0.671794 c 1.45854,0.39579 2.94475,0.689574 4.44418,0.878498 2.77278,0.349361 5.57702,0.339341 8.37157,0.31006 2.18892,-0.02293 4.37897,-0.05741 6.56291,-0.206705 2.09986,-0.143551 4.21191,-0.397575 6.20117,-1.085207 1.3035,-0.450585 2.55035,-1.089836 3.61736,-1.963704 1.80715,-1.480036 3.01677,-3.554104 4.08242,-5.63273 1.13763,-2.219027 2.16163,-4.511604 2.79053,-6.924643 0.77947,-2.990746 0.93687,-6.136437 0.51676,-9.198405 -0.31312,-2.282173 -0.94596,-4.523387 -1.91201,-6.614583 -0.80934,-1.751971 -1.86843,-3.416442 -3.3073,-4.7025553 -2.19713,-1.9638744 -5.2514,-2.93257 -8.17878,-2.5939936 z"
      id="path54" />
    <path style="display:inline;opacity:0.338058;fill:#333333;stroke-width:0;stroke-linecap:round;stroke-linejoin:round"
      d="m 942.11303,46.095377 c 0.0606,0.136402 0.0644,0.294254 0.0259,0.438465 -0.0385,0.144211 -0.11735,0.275471 -0.21437,0.388915 -0.19403,0.226887 -0.4559,0.382666 -0.69004,0.567884 -0.50696,0.40104 -0.884,0.940701 -1.34358,1.395265 -0.74569,0.737553 -1.69034,1.234726 -2.53214,1.860351 -0.62262,0.462726 -1.19339,0.999137 -1.86036,1.395262 -0.99178,0.589038 -2.14165,0.837426 -3.25562,1.136883 -1.05802,0.284417 -2.10094,0.621884 -3.15225,0.930174 -1.12935,0.331173 -2.28549,0.630965 -3.46234,0.620117 -0.60259,-0.0056 -1.20183,-0.0927 -1.80424,-0.108441 -0.6024,-0.01574 -1.22286,0.04477 -1.76141,0.315147 -0.18086,0.0908 -0.3496,0.203841 -0.52718,0.300916 -0.17757,0.09708 -0.36761,0.179101 -0.56888,0.200226 -0.10064,0.01056 -0.20335,0.0056 -0.30127,-0.01995 -0.0979,-0.0255 -0.19096,-0.07186 -0.26691,-0.138727 -0.076,-0.06686 -0.13431,-0.154562 -0.16171,-0.251969 -0.0274,-0.09741 -0.0229,-0.204331 0.0172,-0.297203 0.0347,-0.08032 0.095,-0.148358 0.16682,-0.198349 0.0718,-0.04999 0.15491,-0.08248 0.24035,-0.101409 0.17087,-0.03785 0.34839,-0.02233 0.523,-0.0103 1.47963,0.101969 2.98028,-0.06365 4.39251,-0.516766 0.67971,-0.218084 1.33697,-0.501392 2.01538,-0.723468 1.3307,-0.4356 2.72698,-0.630825 4.08245,-0.981853 1.11884,-0.289747 2.21751,-0.689659 3.20394,-1.29191 0.91812,-0.560542 1.72514,-1.287292 2.63549,-1.860352 0.46226,-0.290992 0.94959,-0.541324 1.40514,-0.842711 0.45556,-0.301387 0.88456,-0.660707 1.17867,-1.120995 0.15149,-0.23709 0.2645,-0.496662 0.4084,-0.738433 0.14391,-0.24177 0.3259,-0.471474 0.57347,-0.605152 0.17552,-0.09477 0.38318,-0.136612 0.57831,-0.09524 0.0976,0.02068 0.19104,0.0619 0.27039,0.122321 0.0793,0.06042 0.14431,0.140166 0.18482,0.231303 z"
      id="path55" />
    <path style="display:inline;opacity:0.338058;fill:#333333;stroke-width:0;stroke-linecap:round;stroke-linejoin:round"
      d="m 856.29606,7.8745328 c -0.39003,0.377975 -0.8194,0.7153364 -1.27892,1.0048708 -0.35184,0.2216848 -0.72157,0.415626 -1.05968,0.6577335 -0.53621,0.3839643 -0.98636,0.8874229 -1.30817,1.4630919 l -10.3118,-15.5860939 c -0.25222,-0.4431574 -0.50192,-0.8877461 -0.74909,-1.3337376 -0.39629,-0.7150684 -0.78608,-1.4337428 -1.1693,-2.1559043 -0.0567,-0.058875 -0.0881,-0.1414598 -0.0847,-0.2231603 0.003,-0.0817 0.0415,-0.1613873 0.10297,-0.2153289 0.0638,-0.05596 0.15176,-0.083268 0.236,-0.073229 0.0842,0.010039 0.16335,0.057263 0.21217,0.12664 0.0488,0.069377 0.0666,0.1597969 0.0476,0.2424755 -0.019,0.082679 -0.0744,0.1562953 -0.14861,0.1974138 0.19242,0.2818505 0.38731,0.5620106 0.58465,0.8404373 0.41278,0.5823978 0.83635,1.1573171 1.27892,1.7174154 0.39372,0.4982768 0.80275,0.9851038 1.2424,1.44336 0.54589,0.5689878 1.1372,1.0921102 1.71741,1.6260635 0.63392,0.5833883 1.2553,1.1804045 1.86357,1.79049704 l 1.75409,1.57351622 0.89472,0.92472514 c 0.35786,0.3442511 0.70534,0.6992935 1.04181,1.0644822 0.3595,0.3901841 0.70632,0.7918258 1.05968,1.1875746 0.70303,0.7873563 1.43206,1.551489 2.18552,2.2907329 0.25304,0.263021 0.54227,0.4911729 0.85698,0.676004 0.24913,0.1463125 0.5159,0.2668439 0.73948,0.4498237 0.11033,0.090296 0.20887,0.1949934 0.29231,0.3105965 z"
      id="path56" />
    <path style="display:inline;opacity:0.338058;fill:#333333;stroke-width:0;stroke-linecap:round;stroke-linejoin:round"
      d="m 837.18526,64.750219 c -0.32117,2.115906 -0.49226,4.254577 -0.51157,6.394632 -0.007,0.787663 0.006,1.577761 -0.083,2.360392 -0.0892,0.782631 -0.28551,1.56451 -0.68439,2.243742 -0.67381,1.147386 -1.85861,1.898775 -3.0663,2.457347 -1.20769,0.558573 -2.48838,0.972851 -3.62065,1.671759 -0.95197,0.587612 -1.79764,1.374946 -2.8502,1.753957 -0.53027,0.190942 -1.09469,0.270515 -1.62942,0.448579 -0.26737,0.08903 -0.52814,0.203403 -0.7605,0.362838 -0.23236,0.159435 -0.43605,0.365673 -0.56987,0.613671 -0.10103,0.187224 -0.16031,0.393482 -0.22554,0.595976 -0.0652,0.202494 -0.13869,0.405954 -0.26328,0.578394 -0.0623,0.08622 -0.13721,0.163961 -0.22491,0.224166 -0.0877,0.0602 -0.18845,0.102545 -0.29387,0.116741 -0.10542,0.0142 -0.21545,-4.89e-4 -0.31085,-0.04754 -0.0954,-0.04705 -0.17521,-0.127215 -0.21626,-0.225347 -0.0374,-0.08929 -0.0419,-0.190373 -0.0223,-0.285161 0.0196,-0.09479 0.0624,-0.183677 0.11598,-0.264265 0.10722,-0.161175 0.25619,-0.289483 0.38134,-0.437174 0.23445,-0.276676 0.38207,-0.618635 0.47125,-0.970148 0.0892,-0.351512 0.12265,-0.714513 0.14994,-1.076134 0.0477,-0.632223 0.0775,-1.266112 0.0731,-1.900118 -0.001,-0.171433 -0.005,-0.345141 0.0365,-0.511572 0.0518,-0.209805 0.17346,-0.398589 0.32822,-0.54944 0.15476,-0.150851 0.34177,-0.265537 0.53778,-0.356563 0.39202,-0.182054 0.82098,-0.272413 1.21682,-0.446005 0.94888,-0.416122 1.62301,-1.264733 2.41171,-1.93666 0.8132,-0.692806 1.77088,-1.212832 2.52129,-1.973201 0.53622,-0.543336 0.95005,-1.192939 1.4251,-1.790497 1.047,-1.317002 2.39055,-2.379868 3.39828,-3.727156 0.29953,-0.400458 0.56736,-0.823453 0.84045,-1.242385 0.45943,-0.70478 0.93462,-1.399286 1.4251,-2.082824 z"
      id="path65" />
    <path style="display:inline;opacity:0.338058;fill:#333333;stroke-width:0;stroke-linecap:round;stroke-linejoin:round"
      d="m 837.2218,39.464017 c 0.55112,-0.381095 1.25793,-0.517069 1.9182,-0.40296 0.66027,0.114109 1.27018,0.46991 1.72237,0.96438 0.45218,0.49447 0.7492,1.122342 0.88171,1.779163 0.13251,0.65682 0.10395,1.341454 -0.0458,1.994559 -0.2995,1.306211 -1.06718,2.460644 -1.95352,3.465776 -0.88634,1.005133 -1.90077,1.889432 -2.8153,2.868981 -3.43786,3.682257 -5.35116,8.577562 -8.76977,12.277693 -3.08644,3.340604 -7.22153,5.513663 -11.40071,7.308152 -3.35927,1.442427 -6.87859,2.72771 -9.64676,5.115705 -0.39945,0.344593 -0.78654,0.714414 -1.25385,0.959232 -0.23365,0.122409 -0.48652,0.212068 -0.7485,0.242814 -0.26197,0.03075 -0.53353,8.56e-4 -0.77477,-0.105822 -0.27185,-0.120214 -0.49834,-0.336744 -0.63886,-0.598674 -0.14052,-0.26193 -0.1957,-0.5673 -0.16503,-0.862955 0.0436,-0.419866 0.25676,-0.811341 0.55068,-1.11432 0.29392,-0.302979 0.66486,-0.522741 1.05398,-0.686358 0.77824,-0.327233 1.63265,-0.439429 2.41481,-0.757176 0.89131,-0.362089 1.6573,-0.978732 2.34019,-1.656377 0.68289,-0.677645 1.2955,-1.422925 1.97162,-2.107321 1.80085,-1.822885 4.0169,-3.180156 5.9196,-4.896461 1.52119,-1.372162 2.82988,-2.962986 4.05604,-4.604137 1.37853,-1.845101 2.6643,-3.766568 4.20219,-5.481111 1.44697,-1.613187 3.11523,-3.04138 4.34835,-4.82338 0.84671,-1.223589 1.47134,-2.591134 2.3386,-3.80024 0.99697,-1.389946 2.29151,-2.538985 3.36177,-3.87332 0.34642,-0.431897 0.67737,-0.890945 1.13276,-1.205843 z"
      id="path66" transform="translate(0,0.41341146)" />
    <path style="display:inline;opacity:0.338058;fill:#333333;stroke-width:0;stroke-linecap:round;stroke-linejoin:round"
      d="m 800.6445,123.2337 c -0.4181,-0.1989 -0.90108,-0.25842 -1.35496,-0.16699 -0.45389,0.0914 -0.87615,0.3333 -1.18464,0.67856 -0.24025,0.26889 -0.41158,0.59886 -0.49329,0.95006 0.19349,0.61774 0.3223,1.25571 0.38367,1.90012 0.09,0.94498 0.0343,1.90369 -0.16444,2.8319 0.0155,0.72525 0.046,1.45018 0.0914,2.17418 0.0874,1.39379 0.23024,2.78993 0.14616,4.18392 -0.0712,1.17981 -0.30434,2.3458 -0.36539,3.52618 -0.0371,0.71774 -0.0104,1.43826 -0.0668,2.15475 -0.0563,0.71648 -0.20084,1.44 -0.55442,2.06571 -0.43238,0.76515 -1.14162,1.3275 -1.71743,1.99147 -1.25133,1.44292 -1.84908,3.33549 -2.92325,4.91473 -0.98339,1.44577 -2.34799,2.59849 -3.81852,3.54445 -2.09223,1.34588 -4.41581,2.30234 -6.50426,3.65408 -2.62363,1.69814 -4.83751,4.00673 -6.50425,6.65042 -0.92091,1.4607 -1.68001,3.02823 -2.19244,4.67721 -0.449,1.44486 -0.70697,2.94424 -1.1693,4.38489 -0.65749,2.04878 -1.71697,3.94433 -2.85017,5.77344 -1.06524,1.7194 -2.20356,3.39729 -3.14251,5.18879 -1.02725,1.95998 -1.81266,4.04993 -2.99635,5.9196 -0.82436,1.30211 -1.83266,2.48198 -2.63094,3.80024 -1.0375,1.7133 -1.74203,3.686 -3.21559,5.04262 -0.17599,0.16203 -0.36293,0.31513 -0.50826,0.50514 -0.0727,0.095 -0.13449,0.19908 -0.17518,0.31156 -0.0407,0.11247 -0.0598,0.23365 -0.0474,0.35261 0.0125,0.11907 0.0565,0.23393 0.12156,0.33446 0.065,0.10052 0.15063,0.18697 0.24677,0.2583 0.1923,0.14267 0.42311,0.22382 0.65481,0.28422 1.13624,0.29619 2.33374,0.13449 3.5079,0.14616 1.27079,0.0126 2.53088,0.23079 3.80024,0.29233 2.34453,0.11367 4.67744,-0.30729 7.01582,-0.51157 1.09348,-0.0955 2.19105,-0.14374 3.28869,-0.14617 0.19451,-4.3e-4 0.39052,4.4e-4 0.58141,-0.0369 0.19089,-0.0374 0.37882,-0.1163 0.51481,-0.25537 0.10337,-0.10572 0.17247,-0.24229 0.20841,-0.38571 0.0359,-0.14342 0.0397,-0.29364 0.0234,-0.4406 -0.0326,-0.29391 -0.14327,-0.57243 -0.23182,-0.85457 -0.5141,-1.63812 -0.28515,-3.40567 -0.43849,-5.1157 -0.12811,-1.42862 -0.52443,-2.81931 -0.73083,-4.23873 -0.2181,-1.49987 -0.22288,-3.02213 -0.36539,-4.53106 -0.16329,-1.72897 -0.50766,-3.46551 -0.29234,-5.18878 0.26202,-2.09696 1.33832,-4.03473 1.53471,-6.13885 0.0975,-1.04502 -0.0253,-2.10704 0.14616,-3.1425 0.25509,-1.54026 1.13709,-2.89647 2.04629,-4.16565 0.81695,-1.1404 1.67833,-2.25856 2.70401,-3.21559 0.96388,-0.89937 2.05971,-1.64426 3.16392,-2.36444 1.10504,-0.72072 2.22348,-1.42065 3.33697,-2.12825 1.04649,-0.66502 2.08866,-1.33683 3.12643,-2.01538 0.76904,-0.69383 1.5024,-1.4272 2.19622,-2.19625 0.91391,-1.013 1.75801,-2.08639 2.60967,-3.15226 0.94263,-1.17972 1.8984,-2.35551 2.68719,-3.64319 1.06255,-1.7346 1.81037,-3.66133 2.19625,-5.65857 0.63742,-1.5526 1.06454,-3.19137 1.26606,-4.85758 0.21949,-1.81485 0.17184,-3.64965 0.18087,-5.4777 0.005,-1.09418 0.0312,-2.18825 0.0775,-3.28146 l -0.51676,-2.42879 c -0.23475,-0.73024 -0.43317,-1.47216 -0.59428,-2.22209 -0.038,-0.17669 -0.0738,-0.35382 -0.10766,-0.53135 z"
      id="path67" />
    <path style="display:inline;opacity:0.338058;fill:#333333;stroke-width:0;stroke-linecap:round;stroke-linejoin:round"
      d="m 830.77615,90.924683 -1.62779,0.232542 1.65364,-0.232542 2.09288,-0.31006 c 0.0184,-0.09077 0.0646,-0.175717 0.13069,-0.240543 0.0661,-0.06483 0.15201,-0.109264 0.24313,-0.125831 0.0911,-0.01657 0.18712,-0.0052 0.27185,0.0322 0.0847,0.03739 0.15783,0.100661 0.207,0.179145 0.0579,0.09239 0.0818,0.203698 0.0781,0.312655 -0.004,0.108957 -0.0339,0.215816 -0.0777,0.315686 -0.0874,0.19974 -0.22696,0.371603 -0.33635,0.560218 -0.18923,0.326288 -0.28566,0.698591 -0.34246,1.071479 -0.0568,0.372887 -0.076,0.750473 -0.12265,1.124769 -0.11682,0.937772 -0.40741,1.853611 -0.85265,2.687174 -0.25895,0.75819 -0.49168,1.525335 -0.69763,2.299603 -0.1416,0.532337 -0.2715,1.070876 -0.49093,1.576133 -0.15573,0.35859 -0.35583,0.69788 -0.59428,1.00769 -0.33984,0.31441 -0.74837,0.55419 -1.18856,0.69763 -0.70263,0.22895 -1.45763,0.20953 -2.19626,0.23254 -0.85447,0.0266 -1.70577,0.11303 -2.55796,0.18087 -2.41447,0.1922 -4.84079,0.23537 -7.26056,0.12918 3.32623,-1.10772 6.2792,-3.306356 8.29408,-6.175343 0.77234,-1.099733 1.41316,-2.297262 2.29959,-3.30729 0.84421,-0.961919 1.90206,-1.735304 3.07475,-2.247924 z"
      id="path82" />
    <path style="display:inline;opacity:0.338058;fill:#333333;stroke-width:0;stroke-linecap:round;stroke-linejoin:round"
      d="m 892.71037,125.26367 -1.47848,12.3247 c 0.19935,4.50993 -0.17301,9.04483 -1.10536,13.46184 -1.19896,5.6801 -3.33294,11.32503 -2.79051,17.1049 0.0813,0.86604 0.22259,1.72517 0.36172,2.58382 0.39619,2.44521 0.77631,4.93226 0.46511,7.38973 -0.0701,0.55359 -0.17515,1.10344 -0.21004,1.66036 -0.0349,0.55692 0.003,1.12864 0.21004,1.64693 0.0958,0.24014 0.22841,0.47236 0.25283,0.72976 0.0122,0.1287 -0.005,0.26242 -0.0644,0.37702 -0.0299,0.0573 -0.0704,0.10929 -0.12012,0.15061 -0.0497,0.0413 -0.10871,0.0718 -0.17172,0.0862 -0.0657,0.015 -0.13511,0.0124 -0.20018,-0.005 -0.0651,-0.0177 -0.12578,-0.0502 -0.17803,-0.0928 -0.10451,-0.0852 -0.17333,-0.20882 -0.2086,-0.33897 -0.0706,-0.26029 -0.0136,-0.53538 0.0184,-0.80317 0.0933,-0.78279 -0.033,-1.57695 -0.23483,-2.339 -0.20187,-0.76205 -0.47882,-1.5022 -0.69534,-2.26021 -0.88493,-3.09804 -0.73759,-6.3957 -1.3436,-9.56014 -0.29479,-1.53934 -0.76619,-3.03819 -1.18854,-4.54752 -0.45036,-1.6094 -0.84564,-3.23361 -1.24023,-4.85759 -0.52622,-2.1657 -1.05313,-4.34206 -1.24024,-6.5629 -0.0956,-1.13504 -0.10193,-2.27642 -0.20672,-3.41065 -0.0349,-0.37825 -0.0809,-0.75814 -0.0517,-1.13688 0.0467,-0.60602 0.29133,-1.19519 0.68765,-1.65602 0.39632,-0.46084 0.94223,-0.79092 1.53443,-0.9278 2.64618,-3.4753 4.9358,-7.22194 6.8213,-11.16211 0.67258,-1.4055 1.29968,-2.85465 1.5503,-4.3925 0.14649,-0.89889 0.16453,-1.82745 0.46508,-2.68717 0.0942,-0.26961 0.21564,-0.52973 0.36174,-0.77515 z"
      id="path83" />
    <path style="display:inline;opacity:0.338058;fill:#333333;stroke-width:0;stroke-linecap:round;stroke-linejoin:round"
      d="m 826.3828,156.06512 c -0.37232,1.01518 -0.7277,2.03657 -1.06595,3.0636 2.20341,0.16051 4.3979,0.44332 6.57,0.84671 0.49633,0.0922 0.99816,0.1911 1.50191,0.15839 0.25188,-0.0164 0.50289,-0.0662 0.73592,-0.16319 0.23302,-0.097 0.44784,-0.24225 0.61234,-0.43369 0.1815,-0.21123 0.29783,-0.47441 0.35198,-0.7476 0.0541,-0.27318 0.0477,-0.55627 0.002,-0.83093 -0.0923,-0.5493 -0.33848,-1.05867 -0.57281,-1.56398 -1.61882,-3.49092 -2.7958,-7.18646 -3.49398,-10.97059 -1.75706,3.45045 -3.30774,7.00599 -4.641,10.64128 z"
      id="path85" />
    <path style="display:inline;opacity:0.338058;fill:#ececec;stroke-width:0;stroke-linecap:round;stroke-linejoin:round"
      d="m 862.84138,142.60108 c -0.0799,0.76358 -0.11445,1.53192 -0.10335,2.29959 0.0115,0.79508 0.0719,1.58945 0.18087,2.37712 -0.0676,0.99917 -0.13648,1.99825 -0.20672,2.99723 -0.0932,1.32544 -0.18876,2.6511 -0.23254,3.97909 -0.0548,1.66178 -0.0284,3.32579 -0.10335,4.98678 -0.0883,1.9575 -0.31706,3.90705 -0.38756,5.86527 -0.0846,2.35099 0.0591,4.70327 0.15502,7.05383 0.0889,2.18036 0.13678,4.36399 0.33589,6.53707 0.18307,1.99805 0.49398,3.98437 0.93019,5.94279 l 1.67947,5.34851 c 0.22982,0.90113 0.47968,1.79715 0.74933,2.68718 0.48096,1.58749 1.02464,3.15513 1.55027,4.72839 0.29965,0.89689 0.59373,1.79656 0.82682,2.71301 0.23614,0.92844 0.40908,1.87172 0.56846,2.81637 0.14676,0.86984 0.28218,1.74162 0.43924,2.60966 0.22044,1.21835 0.48337,2.42856 0.72347,3.64319 0.40953,2.07179 0.75323,4.15915 1.29191,6.20117 0.0652,0.24717 0.13365,0.49615 0.14406,0.75156 0.0104,0.25542 -0.0426,0.52211 -0.19866,0.72457 -0.14899,0.19331 -0.37595,0.30995 -0.60391,0.39713 -0.67104,0.25662 -1.41943,0.30682 -2.11873,0.14212 -0.0924,-0.70496 -0.17429,-1.41131 -0.24547,-2.11873 -0.24717,-2.45644 -0.36632,-4.92914 -0.77515,-7.3639 -0.24757,-1.47437 -0.60039,-2.9287 -0.90431,-4.39249 -0.65985,-3.17805 -1.0908,-6.40805 -1.96372,-9.5343 -0.74522,-2.66891 -1.80785,-5.24421 -2.48046,-7.93234 -0.57154,-2.28421 -0.85642,-4.63046 -1.05937,-6.97632 -0.25437,-2.94027 -0.38204,-5.88979 -0.54261,-8.83667 -0.10369,-1.90299 -0.22113,-3.80547 -0.28421,-5.71024 -0.21631,-6.53159 0.20883,-13.08427 1.26732,-19.53315 z"
      id="path87" />
    <path
      style="display:inline;opacity:0.338058;fill:#1a1a1a;fill-opacity:1;stroke-width:0;stroke-linecap:round;stroke-linejoin:round"
      d="m 751.53766,133.45736 c 0.20552,1.7695 0.3857,3.54194 0.54046,5.3166 0.31482,3.61009 0.52453,7.23227 0.49517,10.85594 -0.0264,3.25415 -0.24803,6.52287 -0.9815,9.69339 -0.73348,3.17052 -1.99476,6.25055 -3.95937,8.84487 -0.6739,0.88991 -1.44073,1.73045 -2.38875,2.31981 -0.94802,0.58936 -2.09843,0.91019 -3.1956,0.70449 -0.32292,-0.0605 -0.6448,-0.16946 -0.89957,-0.3769 -0.12738,-0.10373 -0.2363,-0.23147 -0.31069,-0.37793 -0.0744,-0.14646 -0.11348,-0.31193 -0.10365,-0.47591 0.0116,-0.19362 0.0902,-0.37835 0.19551,-0.54124 0.1053,-0.16289 0.23703,-0.30671 0.36672,-0.45095 1.3671,-1.52053 2.57732,-3.17977 3.63803,-4.92787 2.00907,-3.31107 3.48127,-6.94501 4.36562,-10.71562 0.83386,-3.55532 1.14516,-7.20931 1.45521,-10.84792 0.2413,-2.83171 0.48328,-5.66336 0.72594,-8.49495 l 0.0565,-0.52581 z"
      id="path88" />
    <path id="path8-0"
      style="display:inline;fill:#171717;fill-opacity:1;stroke:none;stroke-width:0.4;stroke-dasharray:none;stroke-opacity:1"
      d="m 867.80782,-20.742289 c -1.76186,0 -3.59904,3.248845 -4.59766,4.445724 -4.08541,4.896373 -7.98177,9.5174635 -10.45672,15.4621049 -5.46878,-5.4687602 -11.0235,-10.7427959 -16.90026,-15.7742309 -1.59402,-1.364706 -4.77055,-4.590828 -7.15254,-3.720187 -3.29186,1.203212 -0.504,7.717088 0.3204,9.785967 3.39488,8.519789 8.31854,17.2493332 16.54059,21.934061 v 0.359668 c -4.87338,4.46621 -8.11118,12.193945 -11.97085,17.61908 -0.79952,1.123953 -3.76713,4.373854 -2.728,5.891113 1.16945,1.707673 6.63814,-1.937602 7.86671,-2.654618 -5.52504,13.270502 -16.76716,24.391174 -26.96838,34.145719 -2.81049,2.687432 -5.96247,5.318847 -9.34879,7.251754 -0.96899,0.553061 -3.7917,1.265795 -3.98373,2.537312 -0.20494,1.356348 1.94334,2.140922 2.90473,2.495455 3.50727,1.293492 6.49412,0.769296 10.06812,0.315227 l -3.95531,5.393469 c 5.36725,1.04733 10.1412,-2.166586 14.74277,-4.314982 -0.68795,1.728548 -3.94427,5.798474 -3.62924,7.436755 0.26025,1.353576 3.75161,0.873485 4.70824,0.771013 4.9401,-0.529209 9.12055,-2.974212 12.58528,-6.409945 -0.39792,1.922646 -0.80678,4.905337 -2.26653,6.322095 -2.31566,2.247456 -7.63648,2.454025 -10.67842,2.698543 -8.49875,0.683123 -17.06368,-0.05657 -25.53022,0.314193 -5.11135,0.22382 -10.09996,0.1904 -15.10244,1.50792 -3.46202,0.91181 -6.65911,3.02721 -10.06812,3.80958 -3.04317,0.69837 -6.56418,0.0931 -9.70845,0.55759 -6.49452,0.95925 -12.06001,4.632619 -15.80627,9.960639 -7.26386,10.33083 -9.17633,22.79497 -11.59361,34.879 -2.24205,11.2081 -6.26686,22.96754 -16.82843,29.02252 -4.20764,2.41228 -8.59002,3.50458 -13.30461,4.41885 0.48088,2.90772 5.46619,3.19709 7.91114,3.54862 8.38779,1.20597 16.55119,0.41796 24.09155,-3.54862 l -0.71882,1.79783 c 7.19374,1.81275 14.33911,-6.5255 18.33842,-11.14713 0,11.29465 -0.31937,22.94514 1.02268,34.16019 0.43951,3.67276 0.39433,9.30365 2.32234,12.53309 0.99156,1.66082 3.25339,1.46931 4.92528,1.4919 4.0691,0.0549 8.13422,0.35811 12.22561,0.35811 1.39886,0 4.08402,0.44184 5.02243,-0.90382 0.90744,-1.30101 -0.23238,-3.84691 -0.57309,-5.20898 -1.09742,-4.38887 -2.40932,-8.80132 -2.95538,-13.30462 -1.11564,-9.19906 -2.76952,-22.02947 3.42512,-29.83952 3.17567,-4.00387 8.48018,-6.92557 12.7,-9.71413 -1.24529,15.77859 -3.42823,34.28364 1.62522,49.62177 2.16074,6.55787 7.11114,6.47248 13.11755,6.47248 1.93282,0 5.15861,0.45233 6.56549,-1.233 1.12284,-1.34503 0.32675,-3.41608 -0.0925,-4.87981 -1.1314,-3.94771 -2.35566,-7.86009 -3.27681,-11.86594 -2.81457,-12.24071 2.761,-23.40922 4.35529,-35.23868 6.48955,1.59879 13.48902,1.79783 20.13676,1.79783 1.35306,9.19566 6.2645,17.32869 8.49509,26.24904 1.85822,7.4311 3.46977,14.89373 5.47408,22.29425 0.75957,2.80465 1.1559,6.81406 2.73007,9.26661 0.95731,1.49142 2.98411,1.16108 4.51548,1.16117 3.96934,2.6e-4 7.89522,-0.31373 11.86646,-0.36122 1.45268,-0.0174 3.48031,-0.0443 4.30362,-1.48879 0.8373,-1.46891 -0.13181,-3.83071 -0.47388,-5.3418 -0.95554,-4.22333 -2.10653,-8.38577 -3.15639,-12.58527 -1.60027,-6.40072 -3.95901,-12.8825 -4.88601,-19.41742 -1.14988,-8.10629 -0.46199,-16.63224 -0.46199,-24.81089 6.16094,-0.50322 12.32309,-3.6559 17.25993,-7.19129 0.66199,15.41924 5.28006,31.90511 9.29452,46.74495 1.66836,6.1678 2.36003,13.60661 5.03639,19.39778 0.90675,1.9623 2.90845,1.70247 4.72684,1.87844 3.94951,0.3822 7.89484,0.29869 11.86595,0.29869 1.54034,0 4.69778,0.5161 5.22345,-1.48622 0.88705,-3.3787 -2.08927,-9.87048 -2.9316,-13.25655 -2.67445,-10.74997 -5.15375,-21.49875 -7.32617,-32.36237 -4.13135,-20.65939 -7.56004,-41.47366 -11.29957,-62.20705 -1.71347,-9.500469 -5.01995,-18.7373 -5.5671,-28.406538 -0.37292,-6.589859 2.1239,-13.152003 2.1239,-19.777088 8.6106,2.227764 15.57422,-1.205602 23.7324,-3.045809 3.83806,-0.865749 8.2053,0.300588 12.22561,-0.411344 7.50761,-1.329508 10.91855,-4.795985 16.28893,-9.706901 1.35822,-1.242053 3.17608,-1.840229 4.56148,-3.083533 7.99509,-7.175224 11.96466,-24.482185 3.92689,-33.0093538 -5.51593,-5.851667 -14.89374,-5.039486 -22.26014,-5.039486 -18.23668,0 -36.43383,-1.078487 -54.6561,-1.078487 2.38905,-2.408897 4.87965,-5.285668 5.82962,-8.6299645 0.88065,-3.1001451 -0.48633,-4.457906 -3.31246,-2.876827 2.06873,-3.4362627 4.08692,-7.7720817 2.87683,-11.8659427 l -13.66428,7.910629 c 0.43517,-1.284809 2.71045,-9.120374 0.31161,-9.120374 z m -0.31161,1.569413 -1.43816,9.3487837 c 5.308,-0.5466327 9.20795,-5.7256757 14.02344,-7.5509607 -0.11008,5.356463 -3.23518,8.4027795 -5.39347,12.9449467 l 0.35966,0.359668 5.75314,-3.236495 c -0.32562,3.7060456 -3.7811,9.8297565 -7.55148,10.9621215 -2.5039,0.75197 -5.64027,0.259167 -8.27029,0.701249 -3.55619,0.597746 -10.66989,1.373066 -10.89236,-4.4715614 -0.0489,-1.2991151 0.72288,-2.4758367 1.49862,-3.8824504 1.54305,-2.7982182 3.89742,-5.8094541 5.40949,-7.6243404 2.07212,-2.487156 3.98501,-5.515514 6.50141,-7.550961 z m -37.63026,0.148828 c 2.32337,0.08752 5.71686,4.079988 7.06623,5.244642 4.58119,3.9537437 9.0249,7.944718 13.3041,12.2256099 2.41026,2.4110851 4.59014,5.5048113 7.55148,7.2853433 1.70478,1.025055 3.93542,0.256048 5.75313,-0.09353 3.13327,-0.602625 6.16928,-0.719336 9.3493,-0.719336 1.53218,4.504301 6.68716,3.817153 10.56776,4.418993 4.15755,0.644793 8.57073,0.9869508 12.79962,1.0139578 0.79964,0.0051 14.41586,-0.342864 14.68474,-0.4198408 0.25055,-0.07173 4.40597,-0.414983 5.17301,-0.06879 0.39776,0.1795228 -0.68743,0.7687758 -2.00321,1.2483328 -0.64129,0.749451 -5.3061,14.776079 -6.38993,22.573553 -0.4421,3.180274 -0.95168,7.625636 -0.27202,10.811033 0.41573,1.948727 1.2034,3.969687 1.86675,5.605019 0.58819,1.449646 2.45305,3.494569 3.69073,5.58984 -4.76249,1.549699 -9.84123,3.426749 -14.94741,3.047876 -3.76495,-0.279337 -8.25593,-2.584998 -11.86594,-2.040703 1.08736,1.151174 3.46884,1.541187 4.09794,2.957442 1.59021,3.580171 -0.85034,9.586381 -1.42317,13.223999 -0.90159,5.725238 -0.34719,11.64779 1.05575,17.259412 5.6835,22.733965 9.16309,45.975735 13.3227,69.039185 2.46489,13.6673 6.03406,27.05474 8.83667,40.63267 -4.53919,1.00276 -8.01048,1.72306 -13.17904,2.99981 -1.17313,0.28981 -3.88445,0.73822 -5.09168,0.51832 -1.15342,-0.21008 -0.92851,-2.46353 -1.19217,-3.51813 l -2.42621,-9.70846 c -2.50091,-10.00408 -4.60138,-20.03355 -6.30711,-30.20487 -0.60464,-3.60583 -2.39519,-8.6005 -1.83296,-12.22561 0.40527,-2.61289 4.22586,-5.59437 5.64565,-7.91063 2.87586,-4.69161 4.28678,-9.74449 5.32577,-15.10244 l -1.079,-0.35966 c -1.52525,4.17725 -2.02873,8.53782 -4.05247,12.58527 -4.57548,9.15107 -13.95443,16.4105 -24.35407,17.25993 l 0.71934,-14.3831 c -1.79271,0.9885 -1.43867,2.83856 -1.43867,4.67413 0,3.96253 -0.31341,7.89692 -0.3607,11.86646 -0.10057,8.44855 -1.11167,17.13832 0.45475,25.53023 1.56236,8.36906 5.59523,16.43467 6.33346,24.9008 -4.38711,0.90506 -8.31202,0.56056 -12.78733,0.53899 -1.7253,-0.008 -4.45333,0.61954 -5.89473,-0.47181 -2.58177,-1.95469 -3.14327,-9.34571 -3.87987,-12.3827 -2.71373,-11.18886 -6.92827,-21.65901 -10.06398,-32.72204 -1.15478,-4.07449 -2.3052,-8.14548 -3.43959,-12.22561 -0.48409,-1.74123 -0.71336,-3.72014 -2.36419,-4.67465 0.28649,3.5073 1.68538,7.0584 2.6696,10.42779 0.26324,0.90133 1.25545,2.78813 0.54209,3.65662 -1.14948,1.3996 -7.30216,0.10359 -8.96535,-0.03 -9.93227,-0.79834 -19.35798,-2.9605 -28.7662,-6.14329 0.85741,-2.69079 2.85932,-4.92044 3.95118,-7.55148 2.81266,-6.77779 3.64547,-14.95616 1.08314,-21.93406 h -0.71934 c -0.34098,2.18025 0.53661,4.29155 0.68678,6.47247 0.34818,5.05512 -0.13857,10.4438 -2.23707,15.10192 -1.75601,3.89804 -4.10863,7.52977 -7.43882,10.26087 -4.38997,3.60006 -9.98814,5.85794 -13.38058,10.59471 -6.93286,9.6805 -3.4725,24.1087 -2.08153,34.87952 -2.46611,0.69301 -5.2244,0.91984 -7.94628,1.01751 -2.2064,0.0792 -4.37788,0.12542 -6.43682,-0.14573 -1.33172,-0.17537 -3.75514,0.14949 -4.66483,-1.07487 -1.14649,-1.54299 -0.70845,-5.15531 -0.73019,-6.98872 -0.0625,-5.26117 -0.35812,-10.53521 -0.35812,-15.82125 0,-10.17506 -0.41657,-20.42324 -1.11104,-30.56455 -0.80618,-11.77166 -1.67633,-23.78749 4.29741,-34.51934 1.67515,-3.00937 3.76045,-5.80641 6.16758,-8.27029 17.82325,-18.242598 45.99832,-8.548139 68.3147,-13.664277 l -3.23598,10.787477 c 2.11086,-1.19804 2.41871,-3.961889 3.11712,-6.112799 1.87806,-5.783732 3.56148,-11.663938 4.79454,-17.619084 3.27882,-15.835878 6.4023,-31.756292 8.32507,-47.824471 l 1.43816,-12.225611 c 0.18061,-1.508914 0.9718,-3.869169 0.43253,-5.327323 -0.92007,-2.4881558 -6.10783,-4.6181638 -8.03413,-6.5437868 -5.00425,-5.0027454 -8.25563,-11.4232011 -10.72338,-17.9735802 -0.42864,-1.137638 -2.39247,-5.901173 -0.62735,-6.577376 0.21399,-0.08198 0.44333,-0.11499 0.68368,-0.105937 z m 10.30221,9.9192916 c 2.03027,4.3536413 7.11504,8.0568974 10.41383,11.5067916 1.82057,1.903919 3.32788,4.255939 5.76709,5.393469 -0.59907,-2.134276 -2.45254,-3.456025 -3.92275,-5.034318 -3.50728,-3.7651779 -7.54692,-9.6688791 -12.25817,-11.8659426 z m 33.32923,14.0317016 55.12739,1.430404 2.72935,-0.07682 c -4.85938,0.654351 -6.54504,1.312641 -11.41026,1.944921 -3.85967,0.501567 -13.44602,1.654095 -17.2834,1.531686 -5.36073,-0.170994 -11.09466,-0.03314 -16.48271,-0.826823 -2.43928,-0.359317 -6.9292,-0.106363 -9.90164,-1.557778 -1.39283,-0.680111 -2.34063,-1.18803 -2.77873,-2.445595 z m 66.39647,1.419035 c 5.54856,0.203513 10.67566,1.916573 13.41623,6.8429928 4.99732,8.983426 1.59803,26.338065 -8.50439,30.732491 -2.86091,1.244472 -6.31051,0.910539 -9.34878,0.910539 -7.9179,0 -16.35629,-0.219735 -23.37274,-4.314982 v -0.718819 l 2.71261,-1.91527 c 0.009,-0.15169 -0.31013,-0.394652 -0.55898,-0.365465 -0.18311,0.02148 -0.50762,0.293246 -0.67232,0.371251 -1.81412,0.859181 -3.39852,2.511223 -5.0206,3.849518 0.15102,0.216473 0.1702,0.357505 0.26508,0.601656 0.0132,0.02562 0.25906,0.109253 0.3012,0.105113 0.22028,-0.02163 0.76665,-0.41643 1.04103,-0.634549 2.0054,-1.594221 6.17995,1.880322 8.40443,2.507913 7.71553,2.17695 15.86209,1.657807 23.73188,1.592668 -4.86373,6.904436 -12.84866,8.989632 -20.85557,8.989115 -2.10461,-1.35e-4 -5.45706,0.386558 -7.16442,0.160197 -0.64744,-0.08589 -0.96404,-1.169609 -1.70843,-1.883089 -3.219,-3.085331 -4.33668,-11.186426 -4.43942,-11.114055 0,-7.89595 1.48701,-15.976584 3.96358,-23.48022 0.72396,-2.193789 1.05715,-5.336664 2.68473,-7.047409 1.66374,-1.7485538 6.56531,-1.7645958 8.88356,-2.3468498 4.4253,-1.111448 10.69282,-3.046233 16.24139,-2.84272 z M 873.2018,10.36589 c -4.71139,0.166363 -10.85998,2.934747 -9.66091,7.857401 l 4.31654,-4.636926 8.26874,-2.195215 v -0.719336 c -0.82618,-0.244217 -1.83712,-0.344316 -2.92437,-0.305924 z m -26.92084,1.744596 h 0.71934 c 0.62788,2.14436 -0.0664,4.297276 -0.29972,6.472473 -0.51562,4.798835 -1.03164,9.603183 -1.70532,14.383101 -1.50771,10.696875 -3.21101,21.40771 -5.33043,32.002698 -0.90294,4.513193 -1.27013,10.347543 -3.58376,14.383102 -3.14781,5.490654 -9.99246,8.220175 -16.04915,8.270296 1.29475,-3.078781 3.5103,-5.053054 2.87631,-8.629964 5.18527,-3.229104 12.1347,-8.897624 14.3831,-14.74277 -2.00853,1.550024 -3.29199,3.915717 -5.04827,5.753138 -6.06893,6.349499 -13.74652,13.266056 -22.99859,13.664282 1.48299,-2.105152 4.11527,-3.665011 3.95531,-6.472473 -4.57493,1.488134 -8.88845,1.96717 -13.3041,-0.359668 2.46516,-1.873422 5.44384,-2.999928 7.91063,-4.964555 9.48623,-7.555089 18.07632,-16.808901 25.1194,-26.678475 2.9638,-4.153373 7.78735,-9.887927 8.32145,-15.102438 l -9.3493,4.314983 z m 101.0419,1.078487 2.096,10.068119 -3.53416,10.068636 c 2.09509,-0.68009 2.99768,-3.091789 3.7052,-5.034318 1.92045,-5.273344 1.39335,-10.174792 -1.18855,-15.102437 z m -10.49238,0.789616 c -0.32064,0.0019 -0.65874,0.04135 -1.0139,0.12299 -5.60712,1.288927 -4.00233,10.69085 1.79628,9.373071 4.89304,-1.112008 4.02716,-9.525022 -0.78238,-9.496061 z m -62.12386,0.615466 c -0.58116,0.0076 -1.18719,0.07956 -1.81643,0.223759 -10.88958,2.495454 -6.533,19.025926 4.31499,16.33492 9.30283,-2.307725 6.21883,-16.673067 -2.49856,-16.558679 z m 0.34106,1.478463 c 1.31107,0.02283 2.48521,0.347109 3.59513,1.060917 1.40512,0.903693 2.27668,2.077797 2.87683,3.607015 -1.42767,-0.858518 -2.78293,-1.841231 -4.52169,-1.841231 -4.02465,0 -6.70532,4.530528 -4.41575,7.920447 1.43841,2.129818 3.68091,2.543912 6.06113,2.550748 -10.1436,6.373337 -16.27807,-13.518835 -3.59565,-13.297896 z m -4.67465,15.455387 c 1.46137,2.50354 3.07252,0.863438 0,0 z M 770.05048,98.409611 v 0.35915 c -9.62621,6.021169 -15.77842,18.021969 -16.83929,29.125869 -0.63793,6.6759 0.28795,13.46797 0.29869,20.13676 0.0136,4.88851 1.5889,10.66095 0.61909,15.46159 -1.25915,6.23268 -10.19795,12.07605 -16.08119,12.94494 l 1.079,-3.23598 c -9.67191,5.64513 -20.54192,6.61416 -31.28336,3.59565 2.51918,-1.34921 5.63806,-1.56424 8.2703,-2.79828 7.00932,-3.28603 12.35161,-8.97101 15.72824,-15.8998 6.64709,-13.63971 5.48126,-29.78115 12.23129,-43.50898 3.22885,-6.56664 7.62985,-12.55111 14.8301,-14.974279 3.63067,-1.22189 7.36574,-1.20664 11.14713,-1.20664 z m -17.97927,22.653399 c -2.51873,12.98782 -0.16035,27.35336 -6.24561,39.55366 -2.97611,5.9668 -8.33993,8.92805 -12.0928,14.02343 3.39978,-1.08337 6.42669,-4.13833 8.65735,-6.83214 8.05901,-9.73235 7.89701,-21.24677 9.02322,-33.08119 0.43013,-4.52001 1.18243,-9.12906 1.37718,-13.66376 z m 43.49399,32.88223 c 1.34422,-0.0274 3.38273,1.08136 4.33048,1.39733 4.62494,1.54195 9.31274,2.31575 14.02344,3.47627 -3.07183,9.4407 -6.04827,20.55137 -5.36195,30.56403 0.28812,4.2017 2.12524,8.10252 2.48512,12.22561 -2.3351,0 -4.5784,-0.2609 -6.84093,-0.46612 -1.75792,-0.15947 -3.53643,-0.20502 -5.32112,-0.58291 -1.29992,-0.27524 -3.51059,-0.18975 -4.40076,-1.29295 -1.60394,-1.98775 -1.38555,-7.4151 -1.41491,-9.88363 -0.0979,-8.27937 0.34532,-16.56226 0.35864,-24.81089 0,-2.13125 -0.58574,-9.04234 1.3441,-10.40247 0.21433,-0.15106 0.48768,-0.21794 0.79789,-0.22427 z m -1.0635,46.94442 17.25992,1.79782 c 0.39874,1.73951 2.21874,5.40231 1.36581,7.08226 -0.9092,1.79062 -4.78382,1.18804 -6.40012,1.18804 -7.59989,0 -11.1589,-2.14702 -12.22561,-10.06812 z m 117.94163,0 3.59617,14.3831 c -4.48537,0.19258 -8.82224,0 -13.30462,0 -1.71687,0 -4.48815,0.46479 -5.92832,-0.69711 -1.86814,-1.50721 -2.51382,-7.43087 -2.70164,-9.73068 z m -135.92038,0.71882 2.87631,11.86646 -20.49591,-0.35967 -1.79782,-11.14712 c 6.71604,0.28836 12.71137,0.94082 19.41742,-0.35967 z m 93.13075,6.47247 2.15749,9.3493 -14.02343,0.71882 -4.77284,-0.57619 -2.77864,-9.13226 z" />
  </g>
</svg>